<svg width="1920" height="1080" viewBox="0 0 1920 1080" xmlns="http://www.w3.org/2000/svg"><rect width="1920" height="1080" fill="#df6688"/><path d="M 0,1080 C 0,1080 0,135 0,135 C 190.93333333333334,138.86666666666667 381.8666666666667,142.73333333333332 604,137 C 826.1333333333333,131.26666666666668 1079.4666666666667,115.93333333333334 1304,114 C 1528.5333333333333,112.06666666666666 1724.2666666666667,123.53333333333333 1920,135 C 1920,135 1920,1080 1920,1080 Z" fill="#3d1053" opacity="0.075"/><path d="M 0,1080 C 0,1080 0,270 0,270 C 269.59999999999997,282.1333333333333 539.1999999999999,294.2666666666667 725,283 C 910.8000000000001,271.7333333333333 1012.8,237.06666666666666 1198,231 C 1383.2,224.93333333333334 1651.6,247.46666666666667 1920,270 C 1920,270 1920,1080 1920,1080 Z" fill="#3d1053" opacity="0.15"/><path d="M 0,1080 C 0,1080 0,405 0,405 C 170.80000000000007,408.06666666666666 341.60000000000014,411.1333333333333 566,420 C 790.3999999999999,428.8666666666667 1068.3999999999999,443.53333333333336 1303,442 C 1537.6000000000001,440.46666666666664 1728.8000000000002,422.73333333333335 1920,405 C 1920,405 1920,1080 1920,1080 Z" fill="#3d1053" opacity="0.22499999999999998"/><path d="M 0,1080 C 0,1080 0,540 0,540 C 242.93333333333334,557.6 485.8666666666667,575.2 706,566 C 926.1333333333333,556.8 1123.4666666666667,520.8 1322,512 C 1520.5333333333333,503.20000000000005 1720.2666666666667,521.6 1920,540 C 1920,540 1920,1080 1920,1080 Z" fill="#3d1053" opacity="0.3"/><path d="M 0,1080 C 0,1080 0,675 0,675 C 212.2666666666667,707.4000000000001 424.5333333333334,739.8000000000001 612,725 C 799.4666666666666,710.1999999999999 962.1333333333334,648.2 1176,632 C 1389.8666666666666,615.8 1654.9333333333334,645.4 1920,675 C 1920,675 1920,1080 1920,1080 Z" fill="#3d1053" opacity="0.375"/><path d="M 0,1080 C 0,1080 0,810 0,810 C 262.40000000000003,812.9333333333334 524.8000000000001,815.8666666666667 728,811 C 931.1999999999999,806.1333333333333 1075.1999999999998,793.4666666666667 1264,792 C 1452.8000000000002,790.5333333333333 1686.4,800.2666666666667 1920,810 C 1920,810 1920,1080 1920,1080 Z" fill="#3d1053" opacity="0.44999999999999996"/><path d="M 0,1080 C 0,1080 0,945 0,945 C 246.13333333333333,927.4000000000001 492.26666666666665,909.8000000000001 708,915 C 923.7333333333333,920.1999999999999 1109.0666666666666,948.1999999999999 1306,957 C 1502.9333333333334,965.8000000000001 1711.4666666666667,955.4000000000001 1920,945 C 1920,945 1920,1080 1920,1080 Z" fill="#3d1053" opacity="0.525"/></svg>